<?xml version="1.0" standalone="no"?>
<!DOCTYPE svg PUBLIC "-//W3C//DTD SVG 20010904//EN"
 "http://www.w3.org/TR/2001/REC-SVG-20010904/DTD/svg10.dtd">
<svg version="1.0" xmlns="http://www.w3.org/2000/svg"
 width="460.000000pt" height="460.000000pt" viewBox="0 0 460.000000 460.000000"
 preserveAspectRatio="xMidYMid meet">
<metadata>
Created by potrace 1.11, written by Peter Selinger 2001-2013
</metadata>
<g transform="translate(0.000000,460.000000) scale(0.100000,-0.100000)"
fill="#000000" stroke="none">
<path d="M2251 4284 c-299 -33 -587 -117 -856 -251 -101 -50 -269 -154 -322
-199 -12 -11 -41 -35 -65 -54 -104 -85 -231 -223 -317 -345 -91 -128 -197
-327 -239 -450 -6 -16 -24 -68 -41 -115 -59 -161 -111 -461 -111 -642 0 -97
30 -358 52 -443 35 -143 101 -328 126 -355 12 -13 13 -10 8 20 -12 83 -16 195
-6 180 5 -8 10 -21 10 -28 0 -12 9 -32 68 -162 14 -30 42 -84 63 -119 22 -34
39 -65 39 -67 0 -3 32 -48 72 -102 64 -87 290 -322 379 -395 147 -120 348
-241 519 -313 44 -18 51 -20 35 -6 -31 28 -52 55 -59 79 -8 25 -14 26 124 -22
242 -86 539 -144 604 -119 22 8 20 34 -1 34 -15 0 -16 2 -3 10 11 7 6 10 -20
10 -59 0 -220 29 -320 57 -348 97 -632 287 -859 576 -34 44 -69 93 -78 110
l-16 31 24 -17 c356 -255 735 -433 1089 -511 128 -29 332 -40 477 -27 192 17
438 93 392 122 -7 4 0 9 19 14 20 4 66 41 134 106 79 76 96 97 73 89 l-30 -10
34 27 c131 106 114 108 -56 4 -164 -99 -211 -122 -298 -149 -233 -70 -561 -68
-815 4 -123 35 -163 51 -275 104 -238 115 -403 258 -559 483 -26 38 -51 78
-56 90 -6 12 -14 29 -19 37 -121 197 -171 531 -120 810 45 249 113 417 204
505 159 154 518 327 825 398 24 6 24 6 5 -9 -11 -8 -89 -54 -173 -102 -84 -48
-148 -88 -142 -90 18 -6 387 113 520 167 113 47 187 61 313 60 169 0 330 -14
355 -30 13 -8 41 -38 63 -66 38 -51 42 -53 87 -53 62 0 175 -33 224 -65 69
-46 196 -178 203 -210 21 -108 156 -255 234 -255 46 0 93 -29 130 -80 35 -49
43 -73 67 -200 10 -52 21 -99 26 -104 28 -34 37 177 17 443 -6 83 -9 156 -6
163 5 15 4 18 41 -103 48 -156 101 -198 161 -127 33 40 31 86 -9 173 -26 57
-128 220 -150 240 -6 6 -19 23 -29 38 -10 15 -54 68 -97 116 -44 49 -80 92
-80 95 0 15 62 2 135 -28 44 -18 82 -31 85 -29 2 2 -1 7 -7 11 -16 10 -113
133 -113 144 0 10 9 6 52 -24 35 -24 41 -23 34 8 -17 65 -165 221 -263 276
-82 46 -114 98 -78 128 15 13 17 12 132 -22 73 -21 79 10 16 86 -30 36 -112
102 -144 116 -13 5 -31 14 -39 19 -67 43 -333 141 -515 191 -44 12 -116 32
-160 45 -44 13 -106 28 -138 34 -32 6 -62 13 -66 15 -4 3 -62 14 -130 25 -138
24 -212 24 -390 5z"/>
</g>
</svg>
